# Made in Blockbench 4.12.4
mtllib Car.mtl

o cylinder
v 0.46875 0.06250000000000001 0.40909090909090906
v 0.25240384615384615 0.06250000000000006 0.40909090909090906
v 0.46875 0.10436706131736292 0.5795454545454545
v 0.25240384615384615 0.10436706131736298 0.5795454545454545
v 0.46875 0.17688293868263708 0.5338722967446949
v 0.25240384615384615 0.17688293868263713 0.5338722967446949
v 0.46875 0.21875000000000003 0.4547640668916686
v 0.2524038461538462 0.21875000000000006 0.4547640668916686
v 0.46875 0.21875000000000003 0.36341775129014947
v 0.2524038461538462 0.21875000000000006 0.36341775129014947
v 0.46875 0.1768829386826371 0.2843095214371232
v 0.25240384615384615 0.17688293868263716 0.2843095214371232
v 0.46875 0.10436706131736298 0.23863636363636362
v 0.25240384615384615 0.10436706131736302 0.23863636363636362
v 0.46875 0.02063293868263716 0.23863636363636362
v 0.25240384615384615 0.020632938682637207 0.23863636363636362
v 0.46875 -0.05188293868263705 0.2843095214371231
v 0.25240384615384615 -0.05188293868263699 0.2843095214371231
v 0.46875 -0.09374999999999994 0.3634177512901495
v 0.2524038461538461 -0.09374999999999992 0.3634177512901495
v 0.46875 -0.09374999999999997 0.45476406689166854
v 0.2524038461538461 -0.09374999999999994 0.45476406689166854
v 0.46875 -0.0518829386826371 0.5338722967446949
v 0.25240384615384615 -0.05188293868263705 0.5338722967446949
v 0.46875 0.02063293868263711 0.5795454545454545
v 0.25240384615384615 0.02063293868263716 0.5795454545454545
v -0.25240384615384615 0.06250000000000004 -0.4772727272727273
v -0.46875 0.06250000000000008 -0.4772727272727273
v -0.25240384615384615 0.10436706131736295 -0.30681818181818177
v -0.46875 0.10436706131736301 -0.30681818181818177
v -0.25240384615384615 0.1768829386826371 -0.3524913396189413
v -0.46875 0.17688293868263716 -0.3524913396189413
v -0.25240384615384615 0.21875000000000003 -0.43159956947196776
v -0.46875 0.2187500000000001 -0.43159956947196776
v -0.25240384615384615 0.21875000000000003 -0.5229458850734868
v -0.46875 0.2187500000000001 -0.5229458850734868
v -0.25240384615384615 0.17688293868263713 -0.6020541149265131
v -0.46875 0.1768829386826372 -0.6020541149265131
v -0.25240384615384615 0.10436706131736298 -0.6477272727272727
v -0.46875 0.10436706131736306 -0.6477272727272727
v -0.25240384615384615 0.02063293868263718 -0.6477272727272727
v -0.46875 0.020632938682637228 -0.6477272727272727
v -0.25240384615384615 -0.051882938682637006 -0.6020541149265132
v -0.46875 -0.05188293868263699 -0.6020541149265132
v -0.25240384615384615 -0.09374999999999992 -0.5229458850734867
v -0.46875 -0.09374999999999989 -0.5229458850734867
v -0.25240384615384615 -0.09374999999999997 -0.43159956947196776
v -0.46875 -0.09374999999999992 -0.43159956947196776
v -0.25240384615384615 -0.05188293868263706 -0.3524913396189413
v -0.46875 -0.05188293868263705 -0.3524913396189413
v -0.25240384615384615 0.02063293868263713 -0.30681818181818177
v -0.46875 0.02063293868263718 -0.30681818181818177
v 0.46875 0.0625 -0.4772727272727273
v 0.25240384615384615 0.06250000000000006 -0.4772727272727273
v 0.46875 0.10436706131736292 -0.30681818181818177
v 0.25240384615384615 0.10436706131736298 -0.30681818181818177
v 0.4687499999999999 0.1768829386826371 -0.3524913396189413
v 0.25240384615384615 0.17688293868263713 -0.3524913396189413
v 0.4687499999999999 0.21875000000000003 -0.43159956947196776
v 0.2524038461538462 0.21875000000000006 -0.43159956947196776
v 0.4687499999999999 0.21875000000000003 -0.5229458850734868
v 0.2524038461538462 0.21875000000000006 -0.5229458850734868
v 0.4687499999999999 0.1768829386826371 -0.6020541149265131
v 0.25240384615384615 0.17688293868263716 -0.6020541149265131
v 0.46875 0.10436706131736295 -0.6477272727272727
v 0.25240384615384615 0.10436706131736304 -0.6477272727272727
v 0.46875 0.02063293868263716 -0.6477272727272727
v 0.25240384615384615 0.020632938682637207 -0.6477272727272727
v 0.46875 -0.05188293868263702 -0.6020541149265132
v 0.25240384615384615 -0.051882938682637006 -0.6020541149265132
v 0.46875 -0.09374999999999997 -0.5229458850734867
v 0.2524038461538461 -0.09374999999999992 -0.5229458850734867
v 0.46875 -0.09374999999999997 -0.43159956947196776
v 0.2524038461538461 -0.09374999999999994 -0.43159956947196776
v 0.46875 -0.051882938682637075 -0.3524913396189413
v 0.25240384615384615 -0.05188293868263706 -0.3524913396189413
v 0.46875 0.02063293868263711 -0.30681818181818177
v 0.25240384615384615 0.02063293868263716 -0.30681818181818177
v -0.25240384615384615 0.06250000000000004 0.40909090909090906
v -0.46875 0.06250000000000008 0.40909090909090906
v -0.25240384615384615 0.10436706131736295 0.5795454545454545
v -0.46875 0.10436706131736301 0.5795454545454545
v -0.25240384615384615 0.1768829386826371 0.5338722967446949
v -0.46875 0.17688293868263716 0.5338722967446949
v -0.25240384615384615 0.21875000000000003 0.4547640668916686
v -0.46875 0.2187500000000001 0.4547640668916686
v -0.25240384615384615 0.21875000000000003 0.36341775129014947
v -0.46875 0.2187500000000001 0.36341775129014947
v -0.25240384615384615 0.17688293868263713 0.2843095214371232
v -0.46875 0.1768829386826372 0.2843095214371232
v -0.25240384615384615 0.10436706131736298 0.23863636363636362
v -0.46875 0.10436706131736306 0.23863636363636362
v -0.25240384615384615 0.02063293868263718 0.23863636363636362
v -0.46875 0.020632938682637228 0.23863636363636362
v -0.25240384615384615 -0.051882938682637006 0.2843095214371231
v -0.46875 -0.05188293868263699 0.2843095214371231
v -0.25240384615384615 -0.09374999999999992 0.3634177512901495
v -0.46875 -0.09374999999999989 0.3634177512901495
v -0.25240384615384615 -0.09374999999999997 0.45476406689166854
v -0.46875 -0.09374999999999992 0.45476406689166854
v -0.25240384615384615 -0.05188293868263706 0.5338722967446949
v -0.46875 -0.05188293868263705 0.5338722967446949
v -0.25240384615384615 0.02063293868263713 0.5795454545454545
v -0.46875 0.02063293868263718 0.5795454545454545
v 0.360576923076923 0.4375 0.40909090909090906
v 0.360576923076923 0.5 -0.40909090909090906
v 0.360576923076923 -1.3877787807814457e-17 0.40909090909090906
v 0.360576923076923 -1.3877787807814457e-17 -0.40909090909090906
v -0.360576923076923 0.43750000000000006 0.40909090909090906
v -0.360576923076923 0.5 -0.40909090909090906
v -0.3605769230769229 1.3877787807814457e-17 0.40909090909090906
v -0.3605769230769229 1.3877787807814457e-17 -0.40909090909090906
v 0.36057692307692296 0.375 -0.75
v 0.360576923076923 -1.3877787807814457e-17 -0.75
v -0.360576923076923 0.37500000000000006 -0.75
v -0.3605769230769229 1.3877787807814457e-17 -0.75
v 0.360576923076923 0.5 0.75
v -0.360576923076923 0.5 0.75
v 0.360576923076923 -1.3877787807814457e-17 0.75
v -0.3605769230769229 1.3877787807814457e-17 0.75
v 0.360576923076923 0.75 0.2727272727272727
v 0.360576923076923 0.75 -0.2727272727272727
v -0.36057692307692324 0.75 0.2727272727272727
v -0.36057692307692324 0.75 -0.2727272727272727
vt 0.7082828125 0.40193437499999995
vt 0.6901546875 0.41335156249999994
vt 0.6796875 0.3707390625
vt 0.7839046875 0.2584140625
vt 0.8053296875 0.2584140625
vt 0.8053296875 0.3125
vt 0.7839046875 0.3125
vt 0.0495296875 0.25852343750000006
vt 0.0676578125 0.26994062500000005
vt 0.0390625 0.3011359375
vt 0.71875 0.38215625
vt 0.7082828125 0.40193437499999995
vt 0.6796875 0.3707390625
vt 0.55214453125 0.2584140625
vt 0.57451953125 0.2584140625
vt 0.57451953125 0.3125
vt 0.55214453125 0.3125
vt 0.0676578125 0.26994062500000005
vt 0.078125 0.28971875
vt 0.0390625 0.3011359375
vt 0.71875 0.35932031249999996
vt 0.71875 0.38215625
vt 0.6796875 0.3707390625
vt 0.57451953125 0.2584140625
vt 0.59735546875 0.2584140625
vt 0.59735546875 0.3125
vt 0.57451953125 0.3125
vt 0.078125 0.28971875
vt 0.078125 0.31255468750000004
vt 0.0390625 0.3011359375
vt 0.7082828125 0.33954375000000003
vt 0.71875 0.35932031249999996
vt 0.6796875 0.3707390625
vt 0.59735546875 0.2584140625
vt 0.61973046875 0.2584140625
vt 0.61973046875 0.3125
vt 0.59735546875 0.3125
vt 0.078125 0.31255468750000004
vt 0.0676578125 0.33233124999999997
vt 0.0390625 0.3011359375
vt 0.6901546875 0.328125
vt 0.7082828125 0.33954375000000003
vt 0.6796875 0.3707390625
vt 0.7415453125 0.3365390625
vt 0.7629703125 0.3365390625
vt 0.7629703125 0.390625
vt 0.7415453125 0.390625
vt 0.0676578125 0.33233124999999997
vt 0.0495296875 0.34375
vt 0.0390625 0.3011359375
vt 0.6692203125 0.328125
vt 0.6901546875 0.328125
vt 0.6796875 0.3707390625
vt 0.7629703125 0.3365390625
vt 0.7839046875 0.3365390625
vt 0.7839046875 0.390625
vt 0.7629703125 0.390625
vt 0.0495296875 0.34375
vt 0.028595312499999997 0.34375
vt 0.0390625 0.3011359375
vt 0.6510921875 0.33954375000000003
vt 0.6692203125 0.328125
vt 0.6796875 0.3707390625
vt 0.7839046875 0.3365390625
vt 0.8053296875 0.3365390625
vt 0.8053296875 0.390625
vt 0.7839046875 0.390625
vt 0.0285953125 0.34375
vt 0.010467187499999999 0.33233124999999997
vt 0.0390625 0.3011359375
vt 0.640625 0.35932031249999996
vt 0.6510921875 0.33954375000000003
vt 0.6796875 0.3707390625
vt 0.64589453125 0.2584140625
vt 0.66826953125 0.2584140625
vt 0.66826953125 0.3125
vt 0.64589453125 0.3125
vt 0.010467187499999999 0.33233124999999997
vt 0 0.31255468750000004
vt 0.0390625 0.3011359375
vt 0.640625 0.38215625
vt 0.640625 0.35932031249999996
vt 0.6796875 0.3707390625
vt 0.66826953125 0.2584140625
vt 0.69110546875 0.2584140625
vt 0.69110546875 0.3125
vt 0.66826953125 0.3125
vt 0 0.31255468750000004
vt 0 0.28971875
vt 0.0390625 0.3011359375
vt 0.6510921875 0.40193437499999995
vt 0.640625 0.38215625
vt 0.6796875 0.3707390625
vt 0.69110546875 0.2584140625
vt 0.71348046875 0.2584140625
vt 0.71348046875 0.3125
vt 0.69110546875 0.3125
vt 0 0.28971875
vt 0.010467187499999996 0.26994062500000005
vt 0.0390625 0.3011359375
vt 0.6692203125 0.41335156249999994
vt 0.6510921875 0.40193437499999995
vt 0.6796875 0.3707390625
vt 0.7415453125 0.2584140625
vt 0.7629703125 0.2584140625
vt 0.7629703125 0.3125
vt 0.7415453125 0.3125
vt 0.010467187499999996 0.26994062500000005
vt 0.028595312499999997 0.25852343750000006
vt 0.0390625 0.3011359375
vt 0.6901546875 0.41335156249999994
vt 0.6692203125 0.41335156249999994
vt 0.6796875 0.3707390625
vt 0.7629703125 0.2584140625
vt 0.7839046875 0.2584140625
vt 0.7839046875 0.3125
vt 0.7629703125 0.3125
vt 0.028595312499999997 0.25852343750000006
vt 0.0495296875 0.25852343750000006
vt 0.0390625 0.3011359375
vt 0.5832828125 0.9800578125
vt 0.5651546875 0.9914765625
vt 0.5546875 0.9488625
vt 0.8151546875 0.5709140625
vt 0.8365796875 0.5709140625
vt 0.8365796875 0.625
vt 0.8151546875 0.625
vt 0.5964046875 0.33664843749999995
vt 0.6145328125 0.3480671875
vt 0.5859375 0.37926249999999995
vt 0.59375 0.96028125
vt 0.5832828125 0.9800578125
vt 0.5546875 0.9488625
vt 0.6771437499999999 0.484375
vt 0.69951875 0.484375
vt 0.69951875 0.5384609375
vt 0.6771437499999999 0.5384609375
vt 0.6145328125 0.3480671875
vt 0.625 0.36784375
vt 0.5859375 0.37926249999999995
vt 0.59375 0.9374453125
vt 0.59375 0.96028125
vt 0.5546875 0.9488625
vt 0.69951875 0.484375
vt 0.7223546875 0.484375
vt 0.7223546875 0.5384609375
vt 0.69951875 0.5384609375
vt 0.625 0.36784375
vt 0.625 0.39067968750000004
vt 0.5859375 0.37926249999999995
vt 0.5832828125 0.9176671875
vt 0.59375 0.9374453125
vt 0.5546875 0.9488625
vt 0.7223546875 0.484375
vt 0.7447312500000001 0.484375
vt 0.7447312500000001 0.5384609375
vt 0.7223546875 0.5384609375
vt 0.625 0.39067968750000004
vt 0.6145328125 0.4104578125
vt 0.5859375 0.37926249999999995
vt 0.5651546875 0.90625
vt 0.5832828125 0.9176671875
vt 0.5546875 0.9488625
vt 0.1009203125 0.18028906249999999
vt 0.1223453125 0.18028906249999999
vt 0.1223453125 0.234375
vt 0.1009203125 0.234375
vt 0.6145328125 0.4104578125
vt 0.5964046875 0.421875
vt 0.5859375 0.37926249999999995
vt 0.5442203125 0.90625
vt 0.5651546875 0.90625
vt 0.5546875 0.9488625
vt 0.1223453125 0.18028906249999999
vt 0.1432796875 0.18028906249999999
vt 0.1432796875 0.234375
vt 0.1223453125 0.234375
vt 0.5964046875 0.421875
vt 0.5754703125 0.421875
vt 0.5859375 0.37926249999999995
vt 0.5260921875 0.9176671875
vt 0.5442203125 0.90625
vt 0.5546875 0.9488625
vt 0.1432796875 0.18028906249999999
vt 0.1647046875 0.18028906249999999
vt 0.1647046875 0.234375
vt 0.1432796875 0.234375
vt 0.5754703125 0.421875
vt 0.5573421875 0.4104578125
vt 0.5859375 0.37926249999999995
vt 0.515625 0.9374453125
vt 0.5260921875 0.9176671875
vt 0.5546875 0.9488625
vt 0.6927687499999999 0.8521640625
vt 0.7151453125 0.8521640625
vt 0.7151453125 0.90625
vt 0.6927687499999999 0.90625
vt 0.5573421875 0.4104578125
vt 0.546875 0.39067968750000004
vt 0.5859375 0.37926249999999995
vt 0.515625 0.96028125
vt 0.515625 0.9374453125
vt 0.5546875 0.9488625
vt 0.7151453125 0.8521640625
vt 0.73798125 0.8521640625
vt 0.73798125 0.90625
vt 0.7151453125 0.90625
vt 0.546875 0.39067968750000004
vt 0.546875 0.36784375
vt 0.5859375 0.37926249999999995
vt 0.5260921875 0.9800578125
vt 0.515625 0.96028125
vt 0.5546875 0.9488625
vt 0.73798125 0.8521640625
vt 0.7603562500000001 0.8521640625
vt 0.7603562500000001 0.90625
vt 0.73798125 0.90625
vt 0.546875 0.36784375
vt 0.5573421875 0.3480671875
vt 0.5859375 0.37926249999999995
vt 0.5442203125 0.9914765625
vt 0.5260921875 0.9800578125
vt 0.5546875 0.9488625
vt 0.7727953125 0.5709140625
vt 0.7942203125 0.5709140625
vt 0.7942203125 0.625
vt 0.7727953125 0.625
vt 0.5573421875 0.3480671875
vt 0.5754703125 0.33664843749999995
vt 0.5859375 0.37926249999999995
vt 0.5651546875 0.9914765625
vt 0.5442203125 0.9914765625
vt 0.5546875 0.9488625
vt 0.7942203125 0.5709140625
vt 0.8151546875 0.5709140625
vt 0.8151546875 0.625
vt 0.7942203125 0.625
vt 0.5754703125 0.33664843749999995
vt 0.5964046875 0.33664843749999995
vt 0.5859375 0.37926249999999995
vt 0.48172097982323664 0.9800583694593775
vt 0.46359157455599276 0.9914764866425032
vt 0.45312444339176017 0.9488618968081137
vt 0.0495296875 0.18028906249999999
vt 0.0709546875 0.18028906249999999
vt 0.0709546875 0.234375
vt 0.0495296875 0.234375
vt 0.6589046875 0.9147734375
vt 0.6770328125 0.9261921875
vt 0.6484375 0.9573875
vt 0.4921874701517481 0.9602822928716623
vt 0.48172097982323664 0.9800583694593775
vt 0.4531260948075635 0.9488636983671266
vt 0.005268749999999989 0.7427890625
vt 0.027643749999999995 0.7427890625
vt 0.027643749999999995 0.796875
vt 0.005268749999999989 0.796875
vt 0.6770328125 0.9261921875
vt 0.6875 0.94596875
vt 0.6484375 0.9573875
vt 0.4921875634704578 0.9374463553718531
vt 0.4921874701517481 0.9602822928716623
vt 0.45312501681462164 0.9488633832434482
vt 0.027643749999999995 0.7427890625
vt 0.05047968750000001 0.7427890625
vt 0.05047968750000001 0.796875
vt 0.027643749999999995 0.796875
vt 0.6875 0.94596875
vt 0.6875 0.9688046875
vt 0.6484375 0.9573875
vt 0.48172138534224995 0.9176683457473981
vt 0.4921875634704578 0.9374463553718531
vt 0.45312420490128413 0.9488636205458771
vt 0.05047968750000001 0.7427890625
vt 0.07285625000000001 0.7427890625
vt 0.07285625000000001 0.796875
vt 0.05047968750000001 0.796875
vt 0.6875 0.9688046875
vt 0.6770328125 0.9885828125
vt 0.6484375 0.9573875
vt 0.46359212402954225 0.90625
vt 0.48172138534224995 0.9176683457473981
vt 0.4531248283328687 0.9488629404746499
vt 0.2727953125 0.19591406249999999
vt 0.2942203125 0.19591406249999999
vt 0.2942203125 0.25
vt 0.2727953125 0.25
vt 0.6770328125 0.9885828125
vt 0.6589046875 1
vt 0.6484375 0.9573875
vt 0.44265774902954225 0.90625
vt 0.46359212402954225 0.90625
vt 0.4531249365295422 0.9488625
vt 0.2942203125 0.19591406249999999
vt 0.3151546875 0.19591406249999999
vt 0.3151546875 0.25
vt 0.2942203125 0.25
vt 0.6589046875 1
vt 0.6379703125 1
vt 0.6484375 0.9573875
vt 0.42452962402954225 0.9176671875
vt 0.44265774902954225 0.90625
vt 0.4531249365295422 0.9488625
vt 0.3151546875 0.19591406249999999
vt 0.3365796875 0.19591406249999999
vt 0.3365796875 0.25
vt 0.3151546875 0.25
vt 0.6379703125 1
vt 0.6198421875 0.9885828125
vt 0.6484375 0.9573875
vt 0.4140624365295422 0.9374453125
vt 0.42452962402954225 0.9176671875
vt 0.4531249365295422 0.9488625
vt 0.6771437499999999 0.5709140625
vt 0.6995203125 0.5709140625
vt 0.6995203125 0.625
vt 0.6771437499999999 0.625
vt 0.6198421875 0.9885828125
vt 0.609375 0.9688046875
vt 0.6484375 0.9573875
vt 0.4140624365295422 0.96028125
vt 0.4140624365295422 0.9374453125
vt 0.4531249365295422 0.9488625
vt 0.6995203125 0.5709140625
vt 0.72235625 0.5709140625
vt 0.72235625 0.625
vt 0.6995203125 0.625
vt 0.609375 0.9688046875
vt 0.609375 0.94596875
vt 0.6484375 0.9573875
vt 0.42452962402954225 0.9800578125
vt 0.4140624365295422 0.96028125
vt 0.4531249365295422 0.9488625
vt 0.72235625 0.5709140625
vt 0.7447312500000001 0.5709140625
vt 0.7447312500000001 0.625
vt 0.72235625 0.625
vt 0.609375 0.94596875
vt 0.6198421875 0.9261921875
vt 0.6484375 0.9573875
vt 0.44265774902954225 0.9914765625
vt 0.42452962402954225 0.9800578125
vt 0.4531249365295422 0.9488625
vt 0.007170312499999998 0.18028906249999999
vt 0.028595312499999997 0.18028906249999999
vt 0.028595312499999997 0.234375
vt 0.007170312499999998 0.234375
vt 0.6198421875 0.9261921875
vt 0.6379703125 0.9147734375
vt 0.6484375 0.9573875
vt 0.46359212402954225 0.9914765625
vt 0.44265774902954225 0.9914765625
vt 0.4531249365295422 0.9488625
vt 0.028595312499999997 0.18028906249999999
vt 0.0495296875 0.18028906249999999
vt 0.0495296875 0.234375
vt 0.028595312499999997 0.234375
vt 0.6379703125 0.9147734375
vt 0.6589046875 0.9147734375
vt 0.6484375 0.9573875
vt 0.1614078125 0.32380937499999995
vt 0.1432796875 0.33522656249999994
vt 0.1328125 0.2926140625
vt 0.5964046875 0.18028906249999999
vt 0.6178296875 0.18028906249999999
vt 0.6178296875 0.234375
vt 0.5964046875 0.234375
vt 0.2370296875 0.25852343750000006
vt 0.2551578125 0.26994062500000005
vt 0.2265625 0.3011359375
vt 0.171875 0.30403125
vt 0.1614078125 0.32380937499999995
vt 0.1328125 0.2926140625
vt 0.70839453125 0.9375
vt 0.73076953125 0.9375
vt 0.73076953125 0.9915859375
vt 0.70839453125 0.9915859375
vt 0.2551578125 0.26994062500000005
vt 0.265625 0.28971875
vt 0.2265625 0.3011359375
vt 0.171875 0.28119531249999996
vt 0.171875 0.30403125
vt 0.1328125 0.2926140625
vt 0.73076953125 0.9375
vt 0.75360546875 0.9375
vt 0.75360546875 0.9915859375
vt 0.73076953125 0.9915859375
vt 0.265625 0.28971875
vt 0.265625 0.31255468750000004
vt 0.2265625 0.3011359375
vt 0.1614078125 0.26141875000000003
vt 0.171875 0.28119531249999996
vt 0.1328125 0.2926140625
vt 0.75360546875 0.9375
vt 0.77598046875 0.9375
vt 0.77598046875 0.9915859375
vt 0.75360546875 0.9915859375
vt 0.265625 0.31255468750000004
vt 0.2551578125 0.33233124999999997
vt 0.2265625 0.3011359375
vt 0.1432796875 0.25
vt 0.1614078125 0.26141875000000003
vt 0.1328125 0.2926140625
vt 0.7727953125 0.4927890625
vt 0.7942203125 0.4927890625
vt 0.7942203125 0.546875
vt 0.7727953125 0.546875
vt 0.2551578125 0.33233124999999997
vt 0.2370296875 0.34375
vt 0.2265625 0.3011359375
vt 0.1223453125 0.25
vt 0.1432796875 0.25
vt 0.1328125 0.2926140625
vt 0.7942203125 0.4927890625
vt 0.8151546875 0.4927890625
vt 0.8151546875 0.546875
vt 0.7942203125 0.546875
vt 0.2370296875 0.34375
vt 0.2160953125 0.34375
vt 0.2265625 0.3011359375
vt 0.1042171875 0.26141875000000003
vt 0.1223453125 0.25
vt 0.1328125 0.2926140625
vt 0.8151546875 0.4927890625
vt 0.8365796875 0.4927890625
vt 0.8365796875 0.546875
vt 0.8151546875 0.546875
vt 0.2160953125 0.34375
vt 0.1979671875 0.33233124999999997
vt 0.2265625 0.3011359375
vt 0.09375 0.28119531249999996
vt 0.1042171875 0.26141875000000003
vt 0.1328125 0.2926140625
vt 0.73964453125 0.4146640625
vt 0.76201953125 0.4146640625
vt 0.76201953125 0.46875
vt 0.73964453125 0.46875
vt 0.1979671875 0.33233124999999997
vt 0.1875 0.31255468750000004
vt 0.2265625 0.3011359375
vt 0.09375 0.30403125
vt 0.09375 0.28119531249999996
vt 0.1328125 0.2926140625
vt 0.76201953125 0.4146640625
vt 0.78485546875 0.4146640625
vt 0.78485546875 0.46875
vt 0.76201953125 0.46875
vt 0.1875 0.31255468750000004
vt 0.1875 0.28971875
vt 0.2265625 0.3011359375
vt 0.1042171875 0.32380937499999995
vt 0.09375 0.30403125
vt 0.1328125 0.2926140625
vt 0.78485546875 0.4146640625
vt 0.80723046875 0.4146640625
vt 0.80723046875 0.46875
vt 0.78485546875 0.46875
vt 0.1875 0.28971875
vt 0.1979671875 0.26994062500000005
vt 0.2265625 0.3011359375
vt 0.1223453125 0.33522656249999994
vt 0.1042171875 0.32380937499999995
vt 0.1328125 0.2926140625
vt 0.5540453125 0.18028906249999999
vt 0.5754703125 0.18028906249999999
vt 0.5754703125 0.234375
vt 0.5540453125 0.234375
vt 0.1979671875 0.26994062500000005
vt 0.2160953125 0.25852343750000006
vt 0.2265625 0.3011359375
vt 0.1432796875 0.33522656249999994
vt 0.1223453125 0.33522656249999994
vt 0.1328125 0.2926140625
vt 0.5754703125 0.18028906249999999
vt 0.5964046875 0.18028906249999999
vt 0.5964046875 0.234375
vt 0.5754703125 0.234375
vt 0.2160953125 0.25852343750000006
vt 0.2370296875 0.25852343750000006
vt 0.2265625 0.3011359375
vt 0.29758526695722465 0.6875021633477187
vt 0.09303899369925683 0.6718772093138048
vt 0.0930399313797744 0.5625033122586531
vt 0.2975841299348023 0.5625030312758251
vt 0.29245064557826816 0.784838535462107
vt 0.31217373175985785 0.8924194316722787
vt 0.11379780607049095 0.9446717923765755
vt 0.09125923781258566 0.8217214123002892
vt 0.40625 0.625
vt 0.40625 0.4375
vt 0.546875 0.4375
vt 0.546875 0.625
vt 0.4914765625 0.640625
vt 0.6960234375000001 0.640625
vt 0.6960234375000001 0.8209124999999999
vt 0.4914765625 0.8209124999999999
vt 0 0.359375
vt 0.125 0.359375
vt 0.125 0.546875
vt 0 0.546875
vt 0.140625 0.546875
vt 0.140625 0.359375
vt 0.234375 0.359375
vt 0.234375 0.546875
vt 0.65625 0.4375
vt 0.65625 0.625
vt 0.5625 0.625
vt 0.5625 0.4375
vt 0.3828104807791205 0.5625
vt 0.3828127027533216 0.6562504676027107
vt 0.29758526695722465 0.6875021633477187
vt 0.2975841299252392 0.5625019799448215
vt 0.40625 0.8209124999999999
vt 0.40625 0.640625
vt 0.4914765625 0.640625
vt 0.4914765625 0.8209124999999999
vt 0.024333436804827968 0.9293011682037091
vt 0.00742939324014219 0.8370877428733201
vt 0.09125908131757654 0.8217205586027237
vt 0.11379780607049095 0.9446717923765755
vt 0.007812297246678396 0.6875014786518079
vt 0.007813368892362157 0.5625014786564015
vt 0.09303993138923013 0.5625022093178244
vt 0.09303899369925683 0.6718772093138048
vt 0.25 0.546875
vt 0.25 0.359375
vt 0.34375 0.359375
vt 0.34375 0.546875
vt 0.37627998175985783 0.7694678691722787
vt 0.3988206067598578 0.8924194316722787
vt 0.31217373175985785 0.8924194316722787
vt 0.29245029425985786 0.7848366191722786
vt 0.78125 0.640625
vt 0.78125 0.8209124999999999
vt 0.6960234375000001 0.8209124999999999
vt 0.6960234375000001 0.640625
vt 0.4375 0.234375
vt 0.4375 0.421875
vt 0.359375 0.421875
vt 0.359375 0.234375
vt 0.26349368119925687 0.7500022093138048
vt 0.12713118119925682 0.7500022093138048
vt 0.09303899369925683 0.6718772093138048
vt 0.29758586869925685 0.6875022093138048
vt 0.453125 0.421875
vt 0.453125 0.234375
vt 0.53125 0.234375
vt 0.53125 0.421875
vt 0.29272777752225637 0.9754112851117837
vt 0.15860050025772676 1
vt 0.11379722248062263 0.9446719460945643
vt 0.31217373175985785 0.8924194316722787
vn 1 -2.220446049250313e-16 0
vn 1.1833616531591162e-16 0.532938710021193 0.8461538461538464
vn -1 2.220446049250313e-16 0
vn 1 -2.220446049250313e-16 0
vn 1.9625445913993853e-16 0.8838515090524254 0.46776758111881866
vn -1 2.220446049250313e-16 0
vn 1 -2.220446049250313e-16 0
vn 2.220446049250313e-16 1 0
vn -1 2.220446049250313e-16 0
vn 1 -2.220446049250313e-16 0
vn 1.962544591399385e-16 0.8838515090524253 -0.46776758111881866
vn -1 2.220446049250313e-16 0
vn 1 -2.220446049250313e-16 0
vn 1.1833616531591167e-16 0.5329387100211932 -0.8461538461538463
vn -1 2.220446049250313e-16 0
vn 1 -2.220446049250313e-16 0
vn 0 0 -1
vn -1 2.220446049250313e-16 0
vn 1 -2.220446049250313e-16 0
vn -1.183361653159115e-16 -0.5329387100211924 -0.8461538461538466
vn -1 2.220446049250313e-16 0
vn 1 -2.220446049250313e-16 0
vn -1.9625445913993857e-16 -0.8838515090524256 -0.46776758111881817
vn -1 2.220446049250313e-16 0
vn 1 -2.220446049250313e-16 0
vn -2.220446049250313e-16 -1 -3.038499739464846e-16
vn -1 2.220446049250313e-16 0
vn 1 -2.220446049250313e-16 0
vn -1.9625445913993862e-16 -0.8838515090524258 0.467767581118818
vn -1 2.220446049250313e-16 0
vn 1 -2.220446049250313e-16 0
vn -1.1833616531591154e-16 -0.5329387100211926 0.8461538461538465
vn -1 2.220446049250313e-16 0
vn 1 -2.220446049250313e-16 0
vn 0 0 1
vn -1 2.220446049250313e-16 0
vn 1 -2.220446049250313e-16 0
vn 1.1833616531591162e-16 0.532938710021193 0.8461538461538464
vn -1 2.220446049250313e-16 0
vn 1 -2.220446049250313e-16 0
vn 4.2021872282084973e-16 0.8838515090524257 0.46776758111881783
vn -1 2.220446049250313e-16 0
vn 1 -2.220446049250313e-16 0
vn 4.786294817272897e-16 1 0
vn -1 2.220446049250313e-16 0
vn 1 -2.220446049250313e-16 0
vn 1.962544591399385e-16 0.8838515090524253 -0.46776758111881866
vn -1 2.220446049250313e-16 0
vn 1 -2.220446049250313e-16 0
vn 1.8850731101641717e-16 0.5329387100211939 -0.8461538461538458
vn -1 2.220446049250313e-16 0
vn 1 -2.220446049250313e-16 0
vn 0 0 -1
vn -1 2.220446049250313e-16 0
vn 1 -2.220446049250313e-16 0
vn -4.8165019615406185e-17 -0.5329387100211928 -0.8461538461538464
vn -1 2.220446049250313e-16 0
vn 1 -2.220446049250313e-16 0
vn -1.962544591399386e-16 -0.8838515090524257 -0.467767581118818
vn -1 2.220446049250313e-16 0
vn 1 -2.220446049250313e-16 0
vn -3.503370433261605e-16 -1 -6.076999478929696e-16
vn -1 2.220446049250313e-16 0
vn 1 -2.220446049250313e-16 0
vn -8.427232729948303e-17 -0.8838515090524257 0.467767581118818
vn -1 2.220446049250313e-16 0
vn 1 -2.220446049250313e-16 0
vn -1.1833616531591154e-16 -0.5329387100211926 0.8461538461538465
vn -1 2.220446049250313e-16 0
vn 1 -2.220446049250313e-16 0
vn 0 0 1
vn -1 2.220446049250313e-16 0
vn 1 1.1038461904778094e-15 -3.256654205567125e-16
vn 1.183361653159116e-16 0.5329387100211929 0.8461538461538463
vn -1 2.220446049250313e-16 0
vn 1 3.9330345471770925e-16 3.256654205567123e-16
vn 1.9625445913993857e-16 0.8838515090524256 0.46776758111881817
vn -1 2.220446049250313e-16 0
vn 1 4.884981308350689e-16 0
vn 2.220446049250313e-16 1 0
vn -1 2.220446049250313e-16 0
vn 1 3.9330345471770905e-16 -3.2566542055671296e-16
vn 1.9625445913993848e-16 0.8838515090524252 -0.467767581118819
vn -1 2.220446049250313e-16 0
vn 1 1.103846190477809e-15 3.256654205567128e-16
vn 1.8850731101641717e-16 0.5329387100211939 -0.8461538461538458
vn -1 2.220446049250313e-16 0
vn 1 -2.220446049250313e-16 0
vn 0 0 -1
vn -1 2.220446049250313e-16 0
vn 1 -2.220446049250313e-16 0
vn -4.8165019615406185e-17 -0.5329387100211928 -0.8461538461538464
vn -1 2.220446049250313e-16 0
vn 1 -2.220446049250313e-16 0
vn -3.082365909803941e-16 -0.8838515090524255 -0.4677675811188183
vn -1 2.220446049250313e-16 0
vn 1 -2.220446049250313e-16 0
vn -2.220446049250313e-16 -1 0
vn -1 2.220446049250313e-16 0
vn 1 -2.220446049250313e-16 0
vn -8.427232729948303e-17 -0.8838515090524258 0.46776758111881783
vn -1 2.220446049250313e-16 0
vn 1 -2.220446049250313e-16 0
vn -1.1833616531591154e-16 -0.5329387100211926 0.8461538461538465
vn -1 2.220446049250313e-16 0
vn 1 -2.220446049250313e-16 0
vn 0 0 1
vn -1 2.220446049250313e-16 0
vn 1 -2.220446049250313e-16 0
vn 1.1833616531591162e-16 0.532938710021193 0.8461538461538464
vn -1 2.220446049250313e-16 0
vn 1 -2.220446049250313e-16 0
vn 4.2021872282085003e-16 0.8838515090524256 0.46776758111881844
vn -1 2.220446049250313e-16 0
vn 1 -2.220446049250313e-16 0
vn 4.786294817272898e-16 1 0
vn -1 2.220446049250313e-16 0
vn 1 -2.220446049250313e-16 0
vn 1.9625445913993855e-16 0.8838515090524255 -0.4677675811188185
vn -1 2.220446049250313e-16 0
vn 1 -2.220446049250313e-16 0
vn 1.8850731101641707e-16 0.5329387100211932 -0.8461538461538463
vn -1 2.220446049250313e-16 0
vn 1 -2.220446049250313e-16 0
vn 0 0 -1
vn -1 2.220446049250313e-16 0
vn 1 -2.220446049250313e-16 0
vn -4.8165019615406124e-17 -0.5329387100211925 -0.8461538461538466
vn -1 2.220446049250313e-16 0
vn 1 -2.220446049250313e-16 0
vn -1.9625445913993857e-16 -0.8838515090524256 -0.4677675811188184
vn -1 2.220446049250313e-16 0
vn 1 -2.220446049250313e-16 0
vn -3.503370433261605e-16 -1 -6.076999478929692e-16
vn -1 2.220446049250313e-16 0
vn 1 -2.220446049250313e-16 0
vn -8.427232729948293e-17 -0.8838515090524256 0.4677675811188184
vn -1 2.220446049250313e-16 0
vn 1 -2.220446049250313e-16 0
vn -1.1833616531591154e-16 -0.5329387100211926 0.8461538461538465
vn -1 2.220446049250313e-16 0
vn 1 -2.220446049250313e-16 0
vn 0 0 1
vn -1 2.220446049250313e-16 0
vn 1 1.5860328923216525e-16 2.9077269692563656e-17
vn -1 -2.8548592061789737e-16 -3.876969292341817e-17
vn -8.585724723767873e-17 1 0
vn -2.960594732333745e-17 -1 0
vn 0 0 1
vn 0 0 -1
vn 6.393154232791668e-17 0.9388763158866088 -0.3442546491584232
vn 1 2.220446049250313e-16 -1.6283271027835626e-16
vn -2.96059473233375e-17 -1 0
vn -1 -3.700743415417188e-16 0
vn 1 1.110223024625157e-16 0
vn -8.73618117737837e-18 0.9836065573770492 -0.18032786885245913
vn -1 -2.220446049250313e-16 8.141635513917814e-17
vn -2.96059473233375e-17 -1 0
vn -3.43381300414909e-17 0.39994445601584006 0.9165393783696333
vn 1 -4.44089209850063e-17 0
vn -4.111292577413122e-17 0.47885213068057336 -0.8778955729143846
vn -1 -6.661338147750941e-16 0
usemtl m_a417e1c4-645c-38f6-0881-6fd143e9f955
f 5/1/1 3/2/1 1/3/1
f 3/4/2 5/5/2 6/6/2 4/7/2
f 4/8/3 6/9/3 2/10/3
f 7/11/4 5/12/4 1/13/4
f 5/14/5 7/15/5 8/16/5 6/17/5
f 6/18/6 8/19/6 2/20/6
f 9/21/7 7/22/7 1/23/7
f 7/24/8 9/25/8 10/26/8 8/27/8
f 8/28/9 10/29/9 2/30/9
f 11/31/10 9/32/10 1/33/10
f 9/34/11 11/35/11 12/36/11 10/37/11
f 10/38/12 12/39/12 2/40/12
f 13/41/13 11/42/13 1/43/13
f 11/44/14 13/45/14 14/46/14 12/47/14
f 12/48/15 14/49/15 2/50/15
f 15/51/16 13/52/16 1/53/16
f 13/54/17 15/55/17 16/56/17 14/57/17
f 14/58/18 16/59/18 2/60/18
f 17/61/19 15/62/19 1/63/19
f 15/64/20 17/65/20 18/66/20 16/67/20
f 16/68/21 18/69/21 2/70/21
f 19/71/22 17/72/22 1/73/22
f 17/74/23 19/75/23 20/76/23 18/77/23
f 18/78/24 20/79/24 2/80/24
f 21/81/25 19/82/25 1/83/25
f 19/84/26 21/85/26 22/86/26 20/87/26
f 20/88/27 22/89/27 2/90/27
f 23/91/28 21/92/28 1/93/28
f 21/94/29 23/95/29 24/96/29 22/97/29
f 22/98/30 24/99/30 2/100/30
f 25/101/31 23/102/31 1/103/31
f 23/104/32 25/105/32 26/106/32 24/107/32
f 24/108/33 26/109/33 2/110/33
f 3/111/34 25/112/34 1/113/34
f 25/114/35 3/115/35 4/116/35 26/117/35
f 26/118/36 4/119/36 2/120/36
f 31/121/37 29/122/37 27/123/37
f 29/124/38 31/125/38 32/126/38 30/127/38
f 30/128/39 32/129/39 28/130/39
f 33/131/40 31/132/40 27/133/40
f 31/134/41 33/135/41 34/136/41 32/137/41
f 32/138/42 34/139/42 28/140/42
f 35/141/43 33/142/43 27/143/43
f 33/144/44 35/145/44 36/146/44 34/147/44
f 34/148/45 36/149/45 28/150/45
f 37/151/46 35/152/46 27/153/46
f 35/154/47 37/155/47 38/156/47 36/157/47
f 36/158/48 38/159/48 28/160/48
f 39/161/49 37/162/49 27/163/49
f 37/164/50 39/165/50 40/166/50 38/167/50
f 38/168/51 40/169/51 28/170/51
f 41/171/52 39/172/52 27/173/52
f 39/174/53 41/175/53 42/176/53 40/177/53
f 40/178/54 42/179/54 28/180/54
f 43/181/55 41/182/55 27/183/55
f 41/184/56 43/185/56 44/186/56 42/187/56
f 42/188/57 44/189/57 28/190/57
f 45/191/58 43/192/58 27/193/58
f 43/194/59 45/195/59 46/196/59 44/197/59
f 44/198/60 46/199/60 28/200/60
f 47/201/61 45/202/61 27/203/61
f 45/204/62 47/205/62 48/206/62 46/207/62
f 46/208/63 48/209/63 28/210/63
f 49/211/64 47/212/64 27/213/64
f 47/214/65 49/215/65 50/216/65 48/217/65
f 48/218/66 50/219/66 28/220/66
f 51/221/67 49/222/67 27/223/67
f 49/224/68 51/225/68 52/226/68 50/227/68
f 50/228/69 52/229/69 28/230/69
f 29/231/70 51/232/70 27/233/70
f 51/234/71 29/235/71 30/236/71 52/237/71
f 52/238/72 30/239/72 28/240/72
f 57/241/73 55/242/73 53/243/73
f 55/244/74 57/245/74 58/246/74 56/247/74
f 56/248/75 58/249/75 54/250/75
f 59/251/76 57/252/76 53/253/76
f 57/254/77 59/255/77 60/256/77 58/257/77
f 58/258/78 60/259/78 54/260/78
f 61/261/79 59/262/79 53/263/79
f 59/264/80 61/265/80 62/266/80 60/267/80
f 60/268/81 62/269/81 54/270/81
f 63/271/82 61/272/82 53/273/82
f 61/274/83 63/275/83 64/276/83 62/277/83
f 62/278/84 64/279/84 54/280/84
f 65/281/85 63/282/85 53/283/85
f 63/284/86 65/285/86 66/286/86 64/287/86
f 64/288/87 66/289/87 54/290/87
f 67/291/88 65/292/88 53/293/88
f 65/294/89 67/295/89 68/296/89 66/297/89
f 66/298/90 68/299/90 54/300/90
f 69/301/91 67/302/91 53/303/91
f 67/304/92 69/305/92 70/306/92 68/307/92
f 68/308/93 70/309/93 54/310/93
f 71/311/94 69/312/94 53/313/94
f 69/314/95 71/315/95 72/316/95 70/317/95
f 70/318/96 72/319/96 54/320/96
f 73/321/97 71/322/97 53/323/97
f 71/324/98 73/325/98 74/326/98 72/327/98
f 72/328/99 74/329/99 54/330/99
f 75/331/100 73/332/100 53/333/100
f 73/334/101 75/335/101 76/336/101 74/337/101
f 74/338/102 76/339/102 54/340/102
f 77/341/103 75/342/103 53/343/103
f 75/344/104 77/345/104 78/346/104 76/347/104
f 76/348/105 78/349/105 54/350/105
f 55/351/106 77/352/106 53/353/106
f 77/354/107 55/355/107 56/356/107 78/357/107
f 78/358/108 56/359/108 54/360/108
f 83/361/109 81/362/109 79/363/109
f 81/364/110 83/365/110 84/366/110 82/367/110
f 82/368/111 84/369/111 80/370/111
f 85/371/112 83/372/112 79/373/112
f 83/374/113 85/375/113 86/376/113 84/377/113
f 84/378/114 86/379/114 80/380/114
f 87/381/115 85/382/115 79/383/115
f 85/384/116 87/385/116 88/386/116 86/387/116
f 86/388/117 88/389/117 80/390/117
f 89/391/118 87/392/118 79/393/118
f 87/394/119 89/395/119 90/396/119 88/397/119
f 88/398/120 90/399/120 80/400/120
f 91/401/121 89/402/121 79/403/121
f 89/404/122 91/405/122 92/406/122 90/407/122
f 90/408/123 92/409/123 80/410/123
f 93/411/124 91/412/124 79/413/124
f 91/414/125 93/415/125 94/416/125 92/417/125
f 92/418/126 94/419/126 80/420/126
f 95/421/127 93/422/127 79/423/127
f 93/424/128 95/425/128 96/426/128 94/427/128
f 94/428/129 96/429/129 80/430/129
f 97/431/130 95/432/130 79/433/130
f 95/434/131 97/435/131 98/436/131 96/437/131
f 96/438/132 98/439/132 80/440/132
f 99/441/133 97/442/133 79/443/133
f 97/444/134 99/445/134 100/446/134 98/447/134
f 98/448/135 100/449/135 80/450/135
f 101/451/136 99/452/136 79/453/136
f 99/454/137 101/455/137 102/456/137 100/457/137
f 100/458/138 102/459/138 80/460/138
f 103/461/139 101/462/139 79/463/139
f 101/464/140 103/465/140 104/466/140 102/467/140
f 102/468/141 104/469/141 80/470/141
f 81/471/142 103/472/142 79/473/142
f 103/474/143 81/475/143 82/476/143 104/477/143
f 104/478/144 82/479/144 80/480/144
f 106/481/145 105/482/145 107/483/145 108/484/145
f 111/485/146 109/486/146 110/487/146 112/488/146
f 123/489/147 121/490/147 122/491/147 124/492/147
f 108/493/148 107/494/148 111/495/148 112/496/148
f 119/497/149 117/498/149 118/499/149 120/500/149
f 115/501/150 113/502/150 114/503/150 116/504/150
f 113/505/151 115/506/151 110/507/151 106/508/151
f 114/509/152 113/510/152 106/511/152 108/512/152
f 116/513/153 114/514/153 108/515/153 112/516/153
f 115/517/154 116/518/154 112/519/154 110/520/154
f 117/521/155 119/522/155 107/523/155 105/524/155
f 118/525/156 117/526/156 105/527/156 109/528/156
f 120/529/157 118/530/157 109/531/157 111/532/157
f 119/533/158 120/534/158 111/535/158 107/536/158
f 121/537/159 123/538/159 109/539/159 105/540/159
f 122/541/160 121/542/160 105/543/160 106/544/160
f 124/545/161 122/546/161 106/547/161 110/548/161
f 123/549/162 124/550/162 110/551/162 109/552/162